# xmcd
#
# Track frame offsets:
#	150
#	16307
#	36870
#	44250
#	54422
#	74525
#	89131
#	111572
#	131719
#	152282
#
# Disc length: 2231 seconds
#
# Revision: 1
# Processed by: cddbd v1.5.2PL0 Copyright (c) Steve Scherf et al.
# Submitted via: EasyCDDAExtractor 15.3.0.1
#
DISCID=8908b50a
DTITLE=eysuhl™ Maryla Rodowicz - Maryla Rodowicz [2012 Polskie.Nagranai 327484
DTITLE=0] Rok
DYEAR=2012
DGENRE=Polskie
TTITLE0=Urodzajny Rok
TTITLE1=Do Lezki Lezka
TTITLE2=Piosenka Przeciw Zasypianiu
TTITLE3=Dwa Wesela
TTITLE4=Malgoska, Szkoda Lez
TTITLE5=Diabel I Raj
TTITLE6=Kiedy Sie Dziwic Przestane
TTITLE7=Westerplatte
TTITLE8=Gdzie Jest Siódme Morze
TTITLE9=Przyjdzie Chmura Chmur
EXTD=
EXTT0=
EXTT1=
EXTT2=
EXTT3=
EXTT4=
EXTT5=
EXTT6=
EXTT7=
EXTT8=
EXTT9=
PLAYORDER=
